ffmpeg started on 2025-05-05 at 10:31:31
Report written to "D:\Convert\FFMetrics\reports\ssim_report-6.txt"
Log level: 32
Command line:
ffmpeg -hide_banner -nostdin -i "G:\\\xc0\xed\xe8\xec\xe5\\\xce\xed\xe3\xee\xe8\xed\xe3\xe8\\!_35_\xcb\xe5\xf2\xee_2024\\JamClub-1\\\xcb\xfe\xe4\xe8 \xef\xee\xe4\xe7\xe5\xec\xe5\xeb\xfc\xff\\JamClub_Dungeon_no_Naka_no_Hito_06_1080p_HEVC.mkv" -i "G:\\\xc0\xed\xe8\xec\xe5\\\xce\xed\xe3\xee\xe8\xed\xe3\xe8\\!_35_\xcb\xe5\xf2\xee_2024\\JamClub-1\\\xcb\xfe\xe4\xe8 \xef\xee\xe4\xe7\xe5\xec\xe5\xeb\xfc\xff\\JamClub_Dungeon_no_Naka_no_Hito_06_1080p.mp4" -lavfi "[0:v]settb=AVTB,setpts=PTS-STARTPTS,format=pix_fmts=yuv420p10,fps=24000/1001,scale=1920:1080:flags=bicubic[main];[1:v]settb=AVTB,setpts=PTS-STARTPTS,format=pix_fmts=yuv420p,fps=24000/1001,scale=1920:1080:flags=bicubic[ref];[main][ref]ssim=eof_action=endall:stats_file='D\\:/Convert/FFMetrics/logs/ssim_logfile-6.txt'" -f null -
Input #0, matroska,webm, from 'G:\Аниме\Онгоинги\!_35_Лето_2024\JamClub-1\Люди подземелья\JamClub_Dungeon_no_Naka_no_Hito_06_1080p_HEVC.mkv':
  Metadata:
    COMPATIBLE_BRANDS: isomiso2avc1mp41
    MAJOR_BRAND     : isom
    MINOR_VERSION   : 512
    ENCODER         : Lavf61.7.100
  Duration: 00:24:51.71, start: -0.021000, bitrate: 1070 kb/s
  Stream #0:0: Video: hevc (Main 10), yuv420p10le(tv, bt709, progressive), 1920x1080 [SAR 1:1 DAR 16:9], 23.98 fps, 23.98 tbr, 1k tbn (default)
      Metadata:
        HANDLER_NAME    : VideoHandler
        VENDOR_ID       : [0][0][0][0]
        ENCODER         : Lavc61.19.100 libx265
        BPS             : 872825
        DURATION        : 00:24:51.614708333
        NUMBER_OF_FRAMES: 35763
        NUMBER_OF_BYTES : 162739814
        _STATISTICS_WRITING_APP: mkvpropedit v66.0.0 ('Josie') 64-bit
        _STATISTICS_WRITING_DATE_UTC: 2025-05-04 13:46:16
        _STATISTICS_TAGS: BPS DURATION NUMBER_OF_FRAMES NUMBER_OF_BYTES
  Stream #0:1(eng): Audio: aac (LC), 48000 Hz, stereo, fltp (default)
      Metadata:
        HANDLER_NAME    : SoundHandler
        VENDOR_ID       : [0][0][0][0]
        ENCODER         : Lavc61.19.100 aac
        BPS             : 193783
        DURATION        : 00:24:51.693000000
        NUMBER_OF_FRAMES: 69924
        NUMBER_OF_BYTES : 36133104
        _STATISTICS_WRITING_APP: mkvpropedit v66.0.0 ('Josie') 64-bit
        _STATISTICS_WRITING_DATE_UTC: 2025-05-04 13:46:16
        _STATISTICS_TAGS: BPS DURATION NUMBER_OF_FRAMES NUMBER_OF_BYTES
Input #1, mov,mp4,m4a,3gp,3g2,mj2, from 'G:\Аниме\Онгоинги\!_35_Лето_2024\JamClub-1\Люди подземелья\JamClub_Dungeon_no_Naka_no_Hito_06_1080p.mp4':
  Metadata:
    major_brand     : isom
    minor_version   : 512
    compatible_brands: isomiso2avc1mp41
    encoder         : Lavf60.16.100
  Duration: 00:24:51.69, start: 0.000000, bitrate: 3971 kb/s
  Stream #1:0[0x1](und): Video: h264 (High) (avc1 / 0x31637661), yuv420p(tv, bt709, progressive), 1920x1080 [SAR 1:1 DAR 16:9], 3772 kb/s, 23.98 fps, 23.98 tbr, 90k tbn (default)
      Metadata:
        handler_name    : VideoHandler
        vendor_id       : [0][0][0][0]
  Stream #1:1[0x2](eng): Audio: aac (LC) (mp4a / 0x6134706D), 48000 Hz, stereo, fltp, 191 kb/s (default)
      Metadata:
        handler_name    : SoundHandler
        vendor_id       : [0][0][0][0]
Stream mapping:
  Stream #0:0 (hevc) -> settb:default
  Stream #1:0 (h264) -> settb:default
  ssim:default -> Stream #0:0 (wrapped_avframe)
  Stream #0:1 -> #0:1 (aac (native) -> pcm_s16le (native))
Output #0, null, to 'pipe:':
  Metadata:
    COMPATIBLE_BRANDS: isomiso2avc1mp41
    MAJOR_BRAND     : isom
    MINOR_VERSION   : 512
    encoder         : Lavf61.7.100
  Stream #0:0: Video: wrapped_avframe, yuv420p10le(tv, bt709, progressive), 1920x1080 [SAR 1:1 DAR 16:9], q=2-31, 200 kb/s, 23.98 fps, 23.98 tbn
      Metadata:
        encoder         : Lavc61.19.100 wrapped_avframe
  Stream #0:1(eng): Audio: pcm_s16le, 48000 Hz, stereo, s16, 1536 kb/s (default)
      Metadata:
        HANDLER_NAME    : SoundHandler
        VENDOR_ID       : [0][0][0][0]
        _STATISTICS_TAGS: BPS DURATION NUMBER_OF_FRAMES NUMBER_OF_BYTES
        BPS             : 193783
        DURATION        : 00:24:51.693000000
        NUMBER_OF_FRAMES: 69924
        NUMBER_OF_BYTES : 36133104
        _STATISTICS_WRITING_APP: mkvpropedit v66.0.0 ('Josie') 64-bit
        _STATISTICS_WRITING_DATE_UTC: 2025-05-04 13:46:16
        encoder         : Lavc61.19.100 pcm_s16le
frame=  116 fps=0.0 q=-0.0 size=N/A time=00:00:04.83 bitrate=N/A speed=9.39x    frame=  282 fps=276 q=-0.0 size=N/A time=00:00:11.76 bitrate=N/A speed=11.5x    frame=  488 fps=316 q=-0.0 size=N/A time=00:00:20.35 bitrate=N/A speed=13.2x    frame=  738 fps=359 q=-0.0 size=N/A time=00:00:30.78 bitrate=N/A speed=  15x    frame=  989 fps=383 q=-0.0 size=N/A time=00:00:41.24 bitrate=N/A speed=  16x    frame= 1267 fps=410 q=-0.0 size=N/A time=00:00:52.84 bitrate=N/A speed=17.1x    frame= 1546 fps=428 q=-0.0 size=N/A time=00:01:04.48 bitrate=N/A speed=17.9x    frame= 1819 fps=442 q=-0.0 size=N/A time=00:01:15.86 bitrate=N/A speed=18.4x    frame= 2087 fps=450 q=-0.0 size=N/A time=00:01:27.04 bitrate=N/A speed=18.8x    frame= 2358 fps=458 q=-0.0 size=N/A time=00:01:38.34 bitrate=N/A speed=19.1x    frame= 2621 fps=463 q=-0.0 size=N/A time=00:01:49.31 bitrate=N/A speed=19.3x    frame= 2915 fps=471 q=-0.0 size=N/A time=00:02:01.57 bitrate=N/A speed=19.6x    frame= 3154 fps=471 q=-0.0 size=N/A time=00:02:11.54 bitrate=N/A speed=19.6x    frame= 3367 fps=467 q=-0.0 size=N/A time=00:02:20.43 bitrate=N/A speed=19.5x    frame= 3579 fps=463 q=-0.0 size=N/A time=00:02:29.27 bitrate=N/A speed=19.3x    frame= 3784 fps=459 q=-0.0 size=N/A time=00:02:37.82 bitrate=N/A speed=19.1x    frame= 4010 fps=457 q=-0.0 size=N/A time=00:02:47.25 bitrate=N/A speed=19.1x    frame= 4226 fps=455 q=-0.0 size=N/A time=00:02:56.25 bitrate=N/A speed=  19x    frame= 4433 fps=452 q=-0.0 size=N/A time=00:03:04.89 bitrate=N/A speed=18.9x    frame= 4594 fps=445 q=-0.0 size=N/A time=00:03:11.60 bitrate=N/A speed=18.6x    frame= 4785 fps=441 q=-0.0 size=N/A time=00:03:19.57 bitrate=N/A speed=18.4x    frame= 5009 fps=441 q=-0.0 size=N/A time=00:03:28.91 bitrate=N/A speed=18.4x    frame= 5271 fps=444 q=-0.0 size=N/A time=00:03:39.84 bitrate=N/A speed=18.5x    frame= 5534 fps=446 q=-0.0 size=N/A time=00:03:50.81 bitrate=N/A speed=18.6x    frame= 5811 fps=450 q=-0.0 size=N/A time=00:04:02.36 bitrate=N/A speed=18.8x    frame= 6066 fps=452 q=-0.0 size=N/A time=00:04:13.00 bitrate=N/A speed=18.8x    frame= 6326 fps=453 q=-0.0 size=N/A time=00:04:23.84 bitrate=N/A speed=18.9x    frame= 6590 fps=456 q=-0.0 size=N/A time=00:04:34.85 bitrate=N/A speed=  19x    frame= 6865 fps=458 q=-0.0 size=N/A time=00:04:46.32 bitrate=N/A speed=19.1x    frame= 7140 fps=461 q=-0.0 size=N/A time=00:04:57.79 bitrate=N/A speed=19.2x    frame= 7412 fps=463 q=-0.0 size=N/A time=00:05:09.14 bitrate=N/A speed=19.3x    frame= 7700 fps=466 q=-0.0 size=N/A time=00:05:21.15 bitrate=N/A speed=19.4x    frame= 7978 fps=468 q=-0.0 size=N/A time=00:05:32.74 bitrate=N/A speed=19.5x    frame= 8256 fps=470 q=-0.0 size=N/A time=00:05:44.34 bitrate=N/A speed=19.6x    frame= 8521 fps=472 q=-0.0 size=N/A time=00:05:55.39 bitrate=N/A speed=19.7x    frame= 8790 fps=473 q=-0.0 size=N/A time=00:06:06.61 bitrate=N/A speed=19.7x    frame= 9064 fps=475 q=-0.0 size=N/A time=00:06:18.04 bitrate=N/A speed=19.8x    frame= 9353 fps=477 q=-0.0 size=N/A time=00:06:30.09 bitrate=N/A speed=19.9x    frame= 9623 fps=478 q=-0.0 size=N/A time=00:06:41.35 bitrate=N/A speed=19.9x    frame= 9893 fps=479 q=-0.0 size=N/A time=00:06:52.62 bitrate=N/A speed=  20x    frame=10177 fps=481 q=-0.0 size=N/A time=00:07:04.46 bitrate=N/A speed=20.1x    frame=10456 fps=482 q=-0.0 size=N/A time=00:07:16.10 bitrate=N/A speed=20.1x    frame=10741 fps=484 q=-0.0 size=N/A time=00:07:27.98 bitrate=N/A speed=20.2x    frame=11013 fps=485 q=-0.0 size=N/A time=00:07:39.33 bitrate=N/A speed=20.2x    frame=11271 fps=485 q=-0.0 size=N/A time=00:07:50.09 bitrate=N/A speed=20.2x    frame=11524 fps=485 q=-0.0 size=N/A time=00:08:00.64 bitrate=N/A speed=20.2x    frame=11802 fps=486 q=-0.0 size=N/A time=00:08:12.24 bitrate=N/A speed=20.3x    frame=12059 fps=486 q=-0.0 size=N/A time=00:08:22.96 bitrate=N/A speed=20.3x    frame=12311 fps=486 q=-0.0 size=N/A time=00:08:33.47 bitrate=N/A speed=20.3x    frame=12589 fps=487 q=-0.0 size=N/A time=00:08:45.06 bitrate=N/A speed=20.3x    frame=12877 fps=489 q=-0.0 size=N/A time=00:08:57.07 bitrate=N/A speed=20.4x    frame=13162 fps=490 q=-0.0 size=N/A time=00:09:08.96 bitrate=N/A speed=20.4x    frame=13430 fps=491 q=-0.0 size=N/A time=00:09:20.14 bitrate=N/A speed=20.5x    frame=13693 fps=491 q=-0.0 size=N/A time=00:09:31.11 bitrate=N/A speed=20.5x    frame=13948 fps=491 q=-0.0 size=N/A time=00:09:41.74 bitrate=N/A speed=20.5x    frame=14207 fps=491 q=-0.0 size=N/A time=00:09:52.55 bitrate=N/A speed=20.5x    frame=14477 fps=492 q=-0.0 size=N/A time=00:10:03.81 bitrate=N/A speed=20.5x    frame=14773 fps=493 q=-0.0 size=N/A time=00:10:16.15 bitrate=N/A speed=20.6x    frame=15038 fps=494 q=-0.0 size=N/A time=00:10:27.20 bitrate=N/A speed=20.6x    frame=15299 fps=494 q=-0.0 size=N/A time=00:10:38.09 bitrate=N/A speed=20.6x    frame=15581 fps=495 q=-0.0 size=N/A time=00:10:49.85 bitrate=N/A speed=20.6x    frame=15846 fps=495 q=-0.0 size=N/A time=00:11:00.91 bitrate=N/A speed=20.6x    frame=16075 fps=494 q=-0.0 size=N/A time=00:11:10.46 bitrate=N/A speed=20.6x    frame=16318 fps=494 q=-0.0 size=N/A time=00:11:20.59 bitrate=N/A speed=20.6x    frame=16591 fps=494 q=-0.0 size=N/A time=00:11:31.98 bitrate=N/A speed=20.6x    frame=16846 fps=494 q=-0.0 size=N/A time=00:11:42.61 bitrate=N/A speed=20.6x    frame=17141 fps=495 q=-0.0 size=N/A time=00:11:54.92 bitrate=N/A speed=20.7x    frame=17414 fps=496 q=-0.0 size=N/A time=00:12:06.30 bitrate=N/A speed=20.7x    frame=17707 fps=497 q=-0.0 size=N/A time=00:12:18.52 bitrate=N/A speed=20.7x    frame=17986 fps=498 q=-0.0 size=N/A time=00:12:30.16 bitrate=N/A speed=20.8x    frame=18238 fps=498 q=-0.0 size=N/A time=00:12:40.67 bitrate=N/A speed=20.8x    frame=18529 fps=498 q=-0.0 size=N/A time=00:12:52.81 bitrate=N/A speed=20.8x    frame=18788 fps=498 q=-0.0 size=N/A time=00:13:03.61 bitrate=N/A speed=20.8x    frame=19059 fps=499 q=-0.0 size=N/A time=00:13:14.91 bitrate=N/A speed=20.8x    frame=19346 fps=500 q=-0.0 size=N/A time=00:13:26.88 bitrate=N/A speed=20.8x    frame=19622 fps=500 q=-0.0 size=N/A time=00:13:38.40 bitrate=N/A speed=20.9x    frame=19903 fps=500 q=-0.0 size=N/A time=00:13:50.12 bitrate=N/A speed=20.9x    frame=20133 fps=500 q=-0.0 size=N/A time=00:13:59.71 bitrate=N/A speed=20.9x    frame=20360 fps=499 q=-0.0 size=N/A time=00:14:09.18 bitrate=N/A speed=20.8x    frame=20636 fps=500 q=-0.0 size=N/A time=00:14:20.69 bitrate=N/A speed=20.8x    frame=20934 fps=500 q=-0.0 size=N/A time=00:14:33.12 bitrate=N/A speed=20.9x    frame=21201 fps=501 q=-0.0 size=N/A time=00:14:44.25 bitrate=N/A speed=20.9x    frame=21472 fps=501 q=-0.0 size=N/A time=00:14:55.56 bitrate=N/A speed=20.9x    frame=21747 fps=501 q=-0.0 size=N/A time=00:15:07.03 bitrate=N/A speed=20.9x    frame=22024 fps=502 q=-0.0 size=N/A time=00:15:18.58 bitrate=N/A speed=20.9x    frame=22304 fps=502 q=-0.0 size=N/A time=00:15:30.26 bitrate=N/A speed=  21x    frame=22570 fps=502 q=-0.0 size=N/A time=00:15:41.35 bitrate=N/A speed=  21x    frame=22817 fps=502 q=-0.0 size=N/A time=00:15:51.65 bitrate=N/A speed=20.9x    frame=23081 fps=502 q=-0.0 size=N/A time=00:16:02.67 bitrate=N/A speed=  21x    frame=23362 fps=503 q=-0.0 size=N/A time=00:16:14.39 bitrate=N/A speed=  21x    frame=23651 fps=503 q=-0.0 size=N/A time=00:16:26.44 bitrate=N/A speed=  21x    frame=23916 fps=504 q=-0.0 size=N/A time=00:16:37.53 bitrate=N/A speed=  21x    frame=24201 fps=504 q=-0.0 size=N/A time=00:16:49.38 bitrate=N/A speed=  21x    frame=24492 fps=505 q=-0.0 size=N/A time=00:17:01.52 bitrate=N/A speed=21.1x    frame=24755 fps=505 q=-0.0 size=N/A time=00:17:12.48 bitrate=N/A speed=21.1x    frame=25026 fps=505 q=-0.0 size=N/A time=00:17:23.79 bitrate=N/A speed=21.1x    frame=25307 fps=505 q=-0.0 size=N/A time=00:17:35.51 bitrate=N/A speed=21.1x    frame=25546 fps=505 q=-0.0 size=N/A time=00:17:45.48 bitrate=N/A speed=21.1x    frame=25808 fps=505 q=-0.0 size=N/A time=00:17:56.40 bitrate=N/A speed=21.1x    frame=26042 fps=505 q=-0.0 size=N/A time=00:18:06.16 bitrate=N/A speed=  21x    frame=26297 fps=504 q=-0.0 size=N/A time=00:18:16.80 bitrate=N/A speed=  21x    frame=26520 fps=504 q=-0.0 size=N/A time=00:18:26.10 bitrate=N/A speed=  21x    frame=26778 fps=504 q=-0.0 size=N/A time=00:18:36.86 bitrate=N/A speed=  21x    frame=26996 fps=503 q=-0.0 size=N/A time=00:18:45.95 bitrate=N/A speed=  21x    frame=27258 fps=503 q=-0.0 size=N/A time=00:18:56.88 bitrate=N/A speed=  21x    frame=27524 fps=503 q=-0.0 size=N/A time=00:19:07.98 bitrate=N/A speed=  21x    frame=27749 fps=502 q=-0.0 size=N/A time=00:19:17.36 bitrate=N/A speed=20.9x    frame=28006 fps=502 q=-0.0 size=N/A time=00:19:28.08 bitrate=N/A speed=20.9x    frame=28256 fps=502 q=-0.0 size=N/A time=00:19:38.51 bitrate=N/A speed=20.9x    frame=28517 fps=502 q=-0.0 size=N/A time=00:19:49.39 bitrate=N/A speed=20.9x    frame=28795 fps=502 q=-0.0 size=N/A time=00:20:00.99 bitrate=N/A speed=20.9x    frame=29065 fps=503 q=-0.0 size=N/A time=00:20:12.25 bitrate=N/A speed=  21x    frame=29324 fps=502 q=-0.0 size=N/A time=00:20:23.05 bitrate=N/A speed=  21x    frame=29596 fps=503 q=-0.0 size=N/A time=00:20:34.39 bitrate=N/A speed=  21x    frame=29852 fps=503 q=-0.0 size=N/A time=00:20:45.07 bitrate=N/A speed=  21x    frame=30071 fps=502 q=-0.0 size=N/A time=00:20:54.21 bitrate=N/A speed=20.9x    frame=30298 fps=501 q=-0.0 size=N/A time=00:21:03.67 bitrate=N/A speed=20.9x    frame=30500 fps=501 q=-0.0 size=N/A time=00:21:12.10 bitrate=N/A speed=20.9x    frame=30785 fps=501 q=-0.0 size=N/A time=00:21:23.99 bitrate=N/A speed=20.9x    frame=31039 fps=501 q=-0.0 size=N/A time=00:21:34.58 bitrate=N/A speed=20.9x    frame=31244 fps=500 q=-0.0 size=N/A time=00:21:43.13 bitrate=N/A speed=20.9x    frame=31491 fps=500 q=-0.0 size=N/A time=00:21:53.43 bitrate=N/A speed=20.8x    frame=31743 fps=500 q=-0.0 size=N/A time=00:22:03.94 bitrate=N/A speed=20.8x    frame=32014 fps=500 q=-0.0 size=N/A time=00:22:15.25 bitrate=N/A speed=20.9x    frame=32297 fps=500 q=-0.0 size=N/A time=00:22:27.05 bitrate=N/A speed=20.9x    frame=32539 fps=500 q=-0.0 size=N/A time=00:22:37.14 bitrate=N/A speed=20.9x    frame=32813 fps=500 q=-0.0 size=N/A time=00:22:48.57 bitrate=N/A speed=20.9x    frame=33076 fps=500 q=-0.0 size=N/A time=00:22:59.54 bitrate=N/A speed=20.9x    frame=33330 fps=500 q=-0.0 size=N/A time=00:23:10.13 bitrate=N/A speed=20.9x    frame=33486 fps=499 q=-0.0 size=N/A time=00:23:16.64 bitrate=N/A speed=20.8x    frame=33644 fps=497 q=-0.0 size=N/A time=00:23:23.23 bitrate=N/A speed=20.7x    frame=33809 fps=496 q=-0.0 size=N/A time=00:23:30.11 bitrate=N/A speed=20.7x    frame=33975 fps=495 q=-0.0 size=N/A time=00:23:37.04 bitrate=N/A speed=20.6x    frame=34141 fps=493 q=-0.0 size=N/A time=00:23:43.96 bitrate=N/A speed=20.6x    frame=34296 fps=492 q=-0.0 size=N/A time=00:23:50.42 bitrate=N/A speed=20.5x    frame=34482 fps=491 q=-0.0 size=N/A time=00:23:58.18 bitrate=N/A speed=20.5x    frame=34623 fps=489 q=-0.0 size=N/A time=00:24:04.06 bitrate=N/A speed=20.4x    frame=34793 fps=488 q=-0.0 size=N/A time=00:24:11.15 bitrate=N/A speed=20.4x    frame=34993 fps=488 q=-0.0 size=N/A time=00:24:19.49 bitrate=N/A speed=20.3x    frame=35198 fps=487 q=-0.0 size=N/A time=00:24:28.04 bitrate=N/A speed=20.3x    frame=35447 fps=487 q=-0.0 size=N/A time=00:24:38.43 bitrate=N/A speed=20.3x    frame=35660 fps=486 q=-0.0 size=N/A time=00:24:47.31 bitrate=N/A speed=20.3x    [Parsed_ssim_10 @ 00000208f3dc2040] SSIM Y:0.995204 (23.190940) U:0.995167 (23.158165) V:0.995565 (23.530748) All:0.995258 (23.240211)
[out#0/null @ 00000208f3950f40] video:15367KiB audio:279696KiB subtitle:0KiB other streams:0KiB global headers:0KiB muxing overhead: unknown
frame=35763 fps=487 q=-0.0 Lsize=N/A time=00:24:51.61 bitrate=N/A speed=20.3x    
